<?xml version="1.0" encoding="UTF-8" standalone="no"?>
<!-- Created with Inkscape (http://www.inkscape.org/) -->

<svg
   xmlns:dc="http://purl.org/dc/elements/1.1/"
   xmlns:cc="http://creativecommons.org/ns#"
   xmlns:rdf="http://www.w3.org/1999/02/22-rdf-syntax-ns#"
   xmlns:svg="http://www.w3.org/2000/svg"
   xmlns="http://www.w3.org/2000/svg"
   xmlns:sodipodi="http://sodipodi.sourceforge.net/DTD/sodipodi-0.dtd"
   xmlns:inkscape="http://www.inkscape.org/namespaces/inkscape"
   version="1.1"
   id="svg2"
   xml:space="preserve"
   width="1333.3333"
   height="1333.3333"
   viewBox="0 0 1333.3333 1333.3333"
   sodipodi:docname="logo-boson-color.svg"
   inkscape:version="0.92.3 (2405546, 2018-03-11)"><metadata
     id="metadata8"><rdf:RDF><cc:Work
         rdf:about=""><dc:format>image/svg+xml</dc:format><dc:type
           rdf:resource="http://purl.org/dc/dcmitype/StillImage" /><dc:title></dc:title></cc:Work></rdf:RDF></metadata><defs
     id="defs6"><clipPath
       clipPathUnits="userSpaceOnUse"
       id="clipPath20"><path
         d="M 0,1000 H 1000 V 0 H 0 Z"
         id="path18"
         inkscape:connector-curvature="0" /></clipPath></defs><sodipodi:namedview
     pagecolor="#ffffff"
     bordercolor="#666666"
     borderopacity="1"
     objecttolerance="10"
     gridtolerance="10"
     guidetolerance="10"
     inkscape:pageopacity="0"
     inkscape:pageshadow="2"
     inkscape:window-width="813"
     inkscape:window-height="480"
     id="namedview4"
     showgrid="false"
     inkscape:zoom="0.17700001"
     inkscape:cx="666.66663"
     inkscape:cy="666.66663"
     inkscape:window-x="0"
     inkscape:window-y="0"
     inkscape:window-maximized="0"
     inkscape:current-layer="g10" /><g
     id="g10"
     inkscape:groupmode="layer"
     inkscape:label="BOSON POST COR"
     transform="matrix(1.3333333,0,0,-1.3333333,0,1333.3333)"><path
       d="M 0,0 H 1000 V 1000 H 0 Z"
       style="fill:#ffdf00;fill-opacity:1;fill-rule:nonzero;stroke:none"
       id="path12"
       inkscape:connector-curvature="0" /><g
       id="g14"><g
         id="g16"
         clip-path="url(#clipPath20)"><g
           id="g22"
           transform="translate(212.5039,567.395)"><path
             d="m 0,0 c 0,2.155 -0.412,4.309 -1.242,6.466 -0.829,2.157 -1.982,4.078 -3.458,5.766 -1.477,1.689 -3.24,3.072 -5.295,4.149 -2.05,1.08 -4.267,1.617 -6.642,1.617 H -45.16 v -35.999 h 28.523 c 2.375,0 4.571,0.503 6.588,1.509 2.017,1.007 3.785,2.355 5.295,4.043 1.514,1.687 2.683,3.611 3.512,5.765 C -0.412,-4.527 0,-2.3 0,0 m -5.711,62.621 c 0,2.156 -0.399,4.165 -1.189,6.035 -0.795,1.867 -1.91,3.521 -3.353,4.958 -1.439,1.437 -3.169,2.568 -5.186,3.396 -2.018,0.823 -4.214,1.239 -6.591,1.239 H -45.16 V 46.992 h 22.804 c 2.449,0 4.7,0.379 6.754,1.132 2.055,0.754 3.802,1.832 5.241,3.233 1.444,1.4 2.579,3.053 3.406,4.958 0.829,1.903 1.244,4.003 1.244,6.306 m -81.161,42.464 c 0,1.51 0.413,2.712 1.24,3.61 0.826,0.899 1.994,1.348 3.502,1.348 h 71.569 c 6.323,0 12.287,-1.202 17.89,-3.61 5.607,-2.409 10.51,-5.711 14.713,-9.916 4.203,-4.203 7.526,-9.125 9.97,-14.766 2.442,-5.642 3.664,-11.693 3.664,-18.161 0,-5.389 -0.846,-10.401 -2.532,-15.034 -1.689,-4.636 -4.079,-8.785 -7.169,-12.449 5.174,-4.744 9.271,-10.386 12.289,-16.924 3.017,-6.538 4.527,-13.472 4.527,-20.801 0,-6.538 -1.258,-12.736 -3.772,-18.592 -2.517,-5.856 -5.911,-10.993 -10.186,-15.413 -4.276,-4.419 -9.27,-7.921 -14.982,-10.508 -5.711,-2.587 -11.732,-3.88 -18.052,-3.88 H -82.13 c -1.437,0 -2.585,0.378 -3.448,1.131 -0.861,0.755 -1.294,1.922 -1.294,3.502 z"
             style="fill:#2a2a2a;fill-opacity:1;fill-rule:nonzero;stroke:none"
             id="path24"
             inkscape:connector-curvature="0" /></g><g
           id="g26"
           transform="translate(380.2368,580.6509)"><path
             d="m 0,0 c -2.009,-5.174 -4.825,-9.683 -8.447,-13.526 -3.627,-3.846 -7.932,-6.863 -12.919,-9.055 -4.987,-2.192 -10.461,-3.286 -16.417,-3.286 -5.956,0 -11.409,1.094 -16.359,3.286 -4.951,2.192 -9.237,5.209 -12.864,9.055 -3.623,3.843 -6.441,8.352 -8.45,13.526 -2.009,5.174 -3.013,10.741 -3.013,16.708 0,5.89 1.004,11.44 3.013,16.649 2.009,5.21 4.827,9.756 8.45,13.635 3.627,3.881 7.913,6.933 12.864,9.163 4.95,2.225 10.403,3.34 16.359,3.34 5.956,0 11.43,-1.115 16.417,-3.34 4.987,-2.23 9.292,-5.282 12.919,-9.163 C -4.825,43.113 -2.009,38.567 0,33.357 2.009,28.148 3.016,22.598 3.016,16.708 3.016,10.741 2.009,5.174 0,0 m 41.76,38.532 c -1.976,7.006 -4.746,13.58 -8.302,19.723 -3.561,6.143 -7.857,11.729 -12.89,16.762 -5.033,5.029 -10.606,9.321 -16.716,12.879 -6.115,3.557 -12.695,6.323 -19.74,8.301 -7.046,1.975 -14.346,2.961 -21.895,2.961 -7.62,0 -14.936,-0.986 -21.946,-2.961 -7.011,-1.978 -13.572,-4.744 -19.685,-8.301 -6.109,-3.558 -11.667,-7.85 -16.662,-12.879 -4.999,-5.033 -9.294,-10.619 -12.887,-16.762 -3.596,-6.143 -6.366,-12.717 -8.305,-19.723 -1.942,-7.005 -2.911,-14.317 -2.911,-21.932 0,-7.618 0.969,-14.928 2.911,-21.934 1.939,-7.007 4.709,-13.545 8.305,-19.618 3.593,-6.072 7.888,-11.604 12.887,-16.597 4.995,-4.996 10.553,-9.288 16.662,-12.88 6.113,-3.593 12.674,-6.36 19.685,-8.3 7.01,-1.94 14.326,-2.909 21.946,-2.909 7.549,0 14.849,0.969 21.895,2.909 7.045,1.94 13.625,4.707 19.74,8.3 6.11,3.592 11.683,7.884 16.716,12.88 5.033,4.993 9.329,10.525 12.89,16.597 3.556,6.073 6.326,12.611 8.302,19.618 1.975,7.006 2.965,14.316 2.965,21.934 0,7.615 -0.99,14.927 -2.965,21.932"
             style="fill:#0020ff;fill-opacity:1;fill-rule:nonzero;stroke:none"
             id="path28"
             inkscape:connector-curvature="0" /></g><g
           id="g30"
           transform="translate(454.3013,569.1191)"><path
             d="m 0,0 c 1.221,-1.009 2.783,-2.356 4.687,-4.041 1.903,-1.69 4.079,-3.36 6.522,-5.012 3.665,-2.446 7.291,-4.35 10.885,-5.715 3.592,-1.364 7.364,-2.046 11.318,-2.046 3.664,0 6.736,0.412 9.215,1.237 2.479,0.826 4.436,1.922 5.874,3.286 1.436,1.365 2.461,2.943 3.073,4.738 0.609,1.794 0.915,3.698 0.915,5.708 0,2.225 -0.845,4.218 -2.533,5.975 -1.689,1.758 -3.756,3.322 -6.198,4.686 -2.444,1.364 -4.995,2.529 -7.651,3.5 -2.66,0.969 -4.958,1.776 -6.898,2.423 -8.623,3.015 -16.167,6.263 -22.635,9.745 -6.468,3.483 -11.856,7.36 -16.167,11.629 -4.311,4.272 -7.545,8.976 -9.7,14.109 -2.157,5.132 -3.234,10.86 -3.234,17.177 0,6.676 1.348,12.745 4.041,18.202 2.695,5.457 6.538,10.124 11.534,14 4.993,3.877 11.01,6.871 18.053,8.99 7.042,2.119 14.909,3.178 23.605,3.178 6.536,0 12.806,-0.738 18.808,-2.21 5.997,-1.473 11.908,-3.827 17.729,-7.059 2.441,-1.439 4.76,-2.928 6.952,-4.473 2.19,-1.546 4.111,-3.037 5.767,-4.474 1.651,-1.439 2.963,-2.801 3.933,-4.095 0.971,-1.293 1.455,-2.408 1.455,-3.341 0,-0.934 -0.234,-1.797 -0.7,-2.588 -0.468,-0.79 -1.169,-1.688 -2.103,-2.695 L 70.057,63.267 c -1.223,-1.223 -2.443,-1.832 -3.664,-1.832 -1.007,0 -1.924,0.287 -2.749,0.861 -0.826,0.574 -1.743,1.294 -2.747,2.157 l -0.972,0.863 c -1.436,1.221 -3.036,2.479 -4.796,3.772 -1.76,1.294 -3.647,2.458 -5.658,3.502 -2.013,1.04 -4.132,1.903 -6.36,2.588 -2.227,0.682 -4.489,1.023 -6.79,1.023 -2.37,0 -4.598,-0.2 -6.682,-0.593 -2.086,-0.395 -3.918,-1.023 -5.496,-1.886 -1.583,-0.861 -2.839,-1.993 -3.773,-3.394 -0.935,-1.402 -1.401,-3.109 -1.401,-5.12 0,-2.014 0.501,-3.756 1.51,-5.229 1.004,-1.472 2.514,-2.838 4.525,-4.094 2.011,-1.259 4.509,-2.444 7.491,-3.559 2.982,-1.115 6.449,-2.317 10.402,-3.61 7.616,-2.516 14.639,-5.155 21.071,-7.922 6.431,-2.768 11.981,-6.035 16.652,-9.807 4.671,-3.773 8.317,-8.283 10.939,-13.529 2.622,-5.244 3.935,-11.604 3.935,-19.074 0,-7.907 -1.617,-15.073 -4.85,-21.504 -3.234,-6.43 -7.672,-11.91 -13.311,-16.437 -5.643,-4.526 -12.271,-8.027 -19.886,-10.506 -7.616,-2.479 -15.808,-3.719 -24.574,-3.719 -8.265,0 -16.383,1.477 -24.359,4.429 -7.975,2.954 -15.412,6.917 -22.31,11.892 -2.874,2.088 -5.302,4.143 -7.275,6.162 -1.978,2.017 -3.542,3.637 -4.69,4.864 l -0.322,0.325 c -0.073,0.141 -0.146,0.233 -0.216,0.27 -0.073,0.033 -0.146,0.088 -0.217,0.162 -0.072,0.142 -0.143,0.234 -0.214,0.271 -0.073,0.033 -0.145,0.087 -0.216,0.16 -1.653,1.803 -2.479,3.244 -2.479,4.324 0,1.227 0.826,2.595 2.479,4.109 L -8.3,0.969 c 1.51,1.079 2.731,1.616 3.665,1.616 0.646,0 1.328,-0.214 2.048,-0.645 C -1.87,1.508 -1.009,0.863 0,0"
             style="fill:#2a2a2a;fill-opacity:1;fill-rule:nonzero;stroke:none"
             id="path32"
             inkscape:connector-curvature="0" /></g><g
           id="g34"
           transform="translate(598.4531,597.3589)"><path
             d="m 0,0 c 0,-5.967 1.004,-11.534 3.013,-16.708 2.008,-5.174 4.827,-9.683 8.45,-13.526 3.625,-3.846 7.913,-6.863 12.862,-9.055 4.952,-2.192 10.404,-3.286 16.361,-3.286 5.957,0 11.427,1.094 16.417,3.286 4.985,2.192 9.292,5.209 12.917,9.055 3.623,3.843 6.438,8.352 8.447,13.526 2.009,5.174 3.015,10.741 3.015,16.708 0,5.89 -1.006,11.44 -3.015,16.649 -2.009,5.21 -4.824,9.756 -8.447,13.635 -3.625,3.881 -7.932,6.933 -12.917,9.163 -4.99,2.225 -10.46,3.34 -16.417,3.34 -5.957,0 -11.409,-1.115 -16.361,-3.34 C 19.376,37.217 15.088,34.165 11.463,30.284 7.84,26.405 5.021,21.859 3.013,16.649 1.004,11.44 0,5.89 0,0 m -41.712,-0.108 c 0,7.615 0.969,14.927 2.911,21.932 1.941,7.006 4.709,13.58 8.305,19.723 3.593,6.143 7.89,11.729 12.89,16.762 4.995,5.029 10.549,9.321 16.662,12.879 6.109,3.557 12.671,6.323 19.681,8.301 7.013,1.975 14.327,2.961 21.949,2.961 7.549,0 14.849,-0.986 21.895,-2.961 7.046,-1.978 13.625,-4.744 19.737,-8.301 6.111,-3.558 11.684,-7.85 16.717,-12.879 5.032,-5.033 9.329,-10.619 12.89,-16.762 3.557,-6.143 6.326,-12.717 8.304,-19.723 1.975,-7.005 2.965,-14.317 2.965,-21.932 0,-7.618 -0.99,-14.928 -2.965,-21.934 -1.978,-7.007 -4.747,-13.545 -8.304,-19.618 -3.561,-6.072 -7.858,-11.604 -12.89,-16.597 -5.033,-4.996 -10.606,-9.288 -16.717,-12.88 -6.112,-3.593 -12.691,-6.36 -19.737,-8.3 -7.046,-1.94 -14.346,-2.909 -21.895,-2.909 -7.622,0 -14.936,0.969 -21.949,2.909 -7.01,1.94 -13.572,4.707 -19.681,8.3 -6.113,3.592 -11.667,7.884 -16.662,12.88 -5,4.993 -9.297,10.525 -12.89,16.597 -3.596,6.073 -6.364,12.611 -8.305,19.618 -1.942,7.006 -2.911,14.316 -2.911,21.934"
             style="fill:#2a2a2a;fill-opacity:1;fill-rule:nonzero;stroke:none"
             id="path36"
             inkscape:connector-curvature="0" /></g><g
           id="g38"
           transform="translate(733.3369,672.6963)"><path
             d="m 0,0 c 0,1.293 0.396,2.408 1.186,3.342 0.79,0.934 1.975,1.4 3.558,1.4 h 35.244 c 1.006,0 2.048,-0.252 3.125,-0.753 1.077,-0.503 2.012,-1.366 2.804,-2.587 9.123,-14.733 18.176,-29.246 27.16,-43.544 8.981,-14.3 18.07,-28.816 27.269,-43.544 V 0.647 c 0.287,1.293 0.863,2.298 1.723,3.018 0.864,0.717 1.869,1.077 3.018,1.077 h 30.719 c 1.507,0 2.766,-0.412 3.772,-1.24 1.005,-0.825 1.508,-1.992 1.508,-3.502 v -151.11 c 0,-1.437 -0.431,-2.497 -1.293,-3.18 -0.861,-0.682 -2.047,-1.022 -3.557,-1.022 h -34.381 c -0.935,0 -1.763,0.324 -2.478,0.968 -0.72,0.649 -1.475,1.51 -2.265,2.588 -9.556,15.807 -19.007,31.436 -28.345,46.885 -9.343,15.448 -18.828,31.077 -28.454,46.886 v -92.586 c 0,-1.581 -0.363,-2.766 -1.08,-3.556 -0.719,-0.79 -2.011,-1.185 -3.879,-1.185 H 4.744 c -1.653,0 -2.857,0.448 -3.61,1.347 -0.755,0.898 -1.134,1.992 -1.134,3.286 z"
             style="fill:#2a2a2a;fill-opacity:1;fill-rule:nonzero;stroke:none"
             id="path40"
             inkscape:connector-curvature="0" /></g><g
           id="g42"
           transform="translate(211.0503,427.2217)"><path
             d="m 0,0 c 0,2.157 -0.376,4.313 -1.133,6.468 -0.753,2.155 -1.851,4.076 -3.286,5.767 -1.439,1.687 -3.18,3.072 -5.228,4.149 -2.047,1.077 -4.364,1.618 -6.951,1.618 h -27.11 v -35.999 h 27.11 c 2.587,0 4.921,0.52 7.004,1.561 2.084,1.042 3.827,2.388 5.229,4.041 1.402,1.654 2.479,3.557 3.232,5.713 C -0.376,-4.524 0,-2.3 0,0 m -85.418,47.209 c 0,1.51 0.393,2.712 1.186,3.61 0.79,0.899 1.975,1.348 3.556,1.348 h 73.131 c 4.958,0 9.627,-0.683 14.01,-2.047 4.385,-1.366 8.409,-3.253 12.073,-5.658 3.664,-2.409 6.969,-5.28 9.916,-8.623 2.946,-3.342 5.442,-6.952 7.491,-10.833 2.048,-3.88 3.61,-7.958 4.689,-12.233 1.077,-4.275 1.616,-8.605 1.616,-12.987 0,-6.468 -1.168,-12.792 -3.504,-18.969 -2.333,-6.18 -5.657,-11.678 -9.97,-16.491 C 24.467,-40.49 19.293,-44.388 13.258,-47.37 7.221,-50.353 0.539,-51.879 -6.79,-51.949 h -36.918 v -51.306 c 0,-3.09 -1.653,-4.633 -4.958,-4.633 h -32.01 c -1.439,0 -2.587,0.378 -3.449,1.131 -0.864,0.755 -1.293,1.922 -1.293,3.502 z"
             style="fill:#2a2a2a;fill-opacity:1;fill-rule:nonzero;stroke:none"
             id="path44"
             inkscape:connector-curvature="0" /></g><g
           id="g46"
           transform="translate(301.7686,399.3086)"><path
             d="m 0,0 c 0,-5.966 1.004,-11.533 3.013,-16.708 2.009,-5.174 4.825,-9.683 8.45,-13.525 3.625,-3.846 7.913,-6.864 12.863,-9.055 4.951,-2.192 10.406,-3.286 16.36,-3.286 5.957,0 11.428,1.094 16.417,3.286 4.985,2.191 9.292,5.209 12.917,9.055 3.623,3.842 6.438,8.351 8.447,13.525 2.01,5.175 3.016,10.742 3.016,16.708 0,5.89 -1.006,11.44 -3.016,16.65 -2.009,5.209 -4.824,9.756 -8.447,13.634 -3.625,3.881 -7.932,6.934 -12.917,9.163 -4.989,2.226 -10.46,3.34 -16.417,3.34 -5.954,0 -11.409,-1.114 -16.36,-3.34 C 19.376,37.218 15.088,34.165 11.463,30.284 7.838,26.406 5.022,21.859 3.013,16.65 1.004,11.44 0,5.89 0,0 m -41.712,-0.107 c 0,7.615 0.969,14.927 2.912,21.931 1.94,7.007 4.708,13.58 8.306,19.724 3.594,6.143 7.888,11.729 12.886,16.762 4.997,5.029 10.552,9.321 16.662,12.879 6.114,3.556 12.673,6.323 19.686,8.3 7.008,1.976 14.324,2.961 21.946,2.961 7.549,0 14.849,-0.985 21.895,-2.961 7.046,-1.977 13.626,-4.744 19.738,-8.3 6.11,-3.558 11.683,-7.85 16.716,-12.879 5.033,-5.033 9.33,-10.619 12.89,-16.762 3.558,-6.144 6.326,-12.717 8.304,-19.724 1.976,-7.004 2.965,-14.316 2.965,-21.931 0,-7.619 -0.989,-14.928 -2.965,-21.935 -1.978,-7.006 -4.746,-13.545 -8.304,-19.617 -3.56,-6.072 -7.857,-11.605 -12.89,-16.598 -5.033,-4.995 -10.606,-9.288 -16.716,-12.88 -6.112,-3.592 -12.692,-6.359 -19.738,-8.3 -7.046,-1.94 -14.346,-2.909 -21.895,-2.909 -7.622,0 -14.938,0.969 -21.946,2.909 -7.013,1.941 -13.572,4.708 -19.686,8.3 -6.11,3.592 -11.665,7.885 -16.662,12.88 -4.998,4.993 -9.292,10.526 -12.886,16.598 -3.598,6.072 -6.366,12.611 -8.306,19.617 -1.943,7.007 -2.912,14.316 -2.912,21.935"
             style="fill:#2a2a2a;fill-opacity:1;fill-rule:nonzero;stroke:none"
             id="path48"
             inkscape:connector-curvature="0" /></g><g
           id="g50"
           transform="translate(454.3013,371.0693)"><path
             d="m 0,0 c 1.221,-1.009 2.783,-2.356 4.687,-4.041 1.903,-1.69 4.079,-3.36 6.522,-5.012 3.665,-2.445 7.291,-4.35 10.885,-5.715 3.592,-1.364 7.364,-2.046 11.318,-2.046 3.664,0 6.736,0.412 9.215,1.238 2.479,0.825 4.436,1.921 5.874,3.285 1.436,1.364 2.461,2.943 3.073,4.737 0.609,1.795 0.915,3.699 0.915,5.709 0,2.226 -0.845,4.218 -2.533,5.975 -1.689,1.758 -3.756,3.321 -6.198,4.685 -2.444,1.365 -4.995,2.53 -7.651,3.5 -2.66,0.97 -4.958,1.777 -6.898,2.423 -8.623,3.016 -16.167,6.265 -22.635,9.745 -6.468,3.484 -11.856,7.361 -16.167,11.63 -4.311,4.272 -7.545,8.976 -9.7,14.109 -2.157,5.132 -3.234,10.86 -3.234,17.177 0,6.676 1.348,12.745 4.041,18.202 2.695,5.457 6.538,10.124 11.534,14 4.993,3.877 11.01,6.871 18.053,8.991 7.042,2.119 14.909,3.178 23.605,3.178 6.536,0 12.806,-0.739 18.808,-2.211 5.997,-1.473 11.908,-3.828 17.729,-7.059 2.441,-1.439 4.76,-2.928 6.952,-4.474 2.19,-1.545 4.111,-3.036 5.767,-4.472 1.651,-1.44 2.963,-2.802 3.933,-4.096 0.971,-1.293 1.455,-2.408 1.455,-3.342 0,-0.933 -0.234,-1.797 -0.7,-2.587 -0.468,-0.79 -1.169,-1.688 -2.103,-2.695 L 70.057,63.268 c -1.223,-1.223 -2.443,-1.832 -3.664,-1.832 -1.007,0 -1.924,0.286 -2.749,0.86 -0.826,0.574 -1.743,1.294 -2.747,2.157 l -0.972,0.862 c -1.436,1.221 -3.036,2.48 -4.796,3.773 -1.76,1.294 -3.647,2.459 -5.658,3.503 -2.013,1.039 -4.132,1.902 -6.36,2.587 -2.227,0.681 -4.489,1.023 -6.79,1.023 -2.37,0 -4.598,-0.2 -6.682,-0.593 -2.086,-0.395 -3.918,-1.023 -5.496,-1.886 -1.583,-0.862 -2.839,-1.993 -3.773,-3.394 -0.935,-1.402 -1.401,-3.109 -1.401,-5.12 0,-2.014 0.501,-3.756 1.51,-5.229 1.004,-1.472 2.514,-2.838 4.525,-4.094 2.011,-1.259 4.509,-2.444 7.491,-3.559 2.982,-1.114 6.449,-2.316 10.402,-3.61 7.616,-2.517 14.639,-5.155 21.071,-7.921 6.431,-2.769 11.981,-6.035 16.652,-9.808 4.671,-3.772 8.317,-8.284 10.939,-13.528 2.622,-5.245 3.935,-11.605 3.935,-19.075 0,-7.906 -1.617,-15.073 -4.85,-21.503 -3.234,-6.431 -7.672,-11.91 -13.311,-16.439 -5.643,-4.524 -12.271,-8.027 -19.886,-10.505 -7.616,-2.48 -15.808,-3.719 -24.574,-3.719 -8.265,0 -16.383,1.476 -24.359,4.429 -7.975,2.954 -15.412,6.917 -22.31,11.892 -2.874,2.088 -5.302,4.143 -7.275,6.162 -1.978,2.018 -3.542,3.638 -4.69,4.864 l -0.322,0.325 c -0.073,0.141 -0.146,0.233 -0.216,0.27 -0.073,0.033 -0.146,0.088 -0.217,0.162 -0.072,0.142 -0.143,0.234 -0.214,0.271 -0.073,0.033 -0.145,0.088 -0.216,0.16 -1.653,1.803 -2.479,3.244 -2.479,4.323 0,1.228 0.826,2.596 2.479,4.11 L -8.3,0.969 c 1.51,1.08 2.731,1.616 3.665,1.616 0.646,0 1.328,-0.214 2.048,-0.645 C -1.87,1.508 -1.009,0.863 0,0"
             style="fill:#2a2a2a;fill-opacity:1;fill-rule:nonzero;stroke:none"
             id="path52"
             inkscape:connector-curvature="0" /></g><g
           id="g54"
           transform="translate(552.6416,474.6592)"><path
             d="m 0,0 c 0,1.433 0.485,2.579 1.456,3.439 0.97,0.86 2.171,1.29 3.61,1.29 h 115.972 c 1.294,0 2.444,-0.393 3.45,-1.181 1.005,-0.788 1.579,-1.972 1.725,-3.548 v -26.757 c 0,-1.289 -0.449,-2.527 -1.348,-3.71 -0.898,-1.181 -2.174,-1.772 -3.827,-1.772 H 83.854 v -118.016 c 0,-1.294 -0.465,-2.463 -1.397,-3.507 -0.934,-1.044 -2.15,-1.563 -3.654,-1.563 H 47.196 c -1.22,0 -2.367,0.484 -3.442,1.455 -1.072,0.972 -1.611,2.176 -1.611,3.615 V -32.239 H 5.066 c -1.439,0 -2.64,0.466 -3.61,1.397 C 0.485,-29.912 0,-28.55 0,-26.757 Z"
             style="fill:#2a2a2a;fill-opacity:1;fill-rule:nonzero;stroke:none"
             id="path56"
             inkscape:connector-curvature="0" /></g><g
           id="g58"
           transform="translate(372.2583,707.9751)"><path
             d="m 0,0 c 0,-9.997 -8.104,-18.102 -18.101,-18.102 -9.997,0 -18.102,8.105 -18.102,18.102 0,9.997 8.105,18.101 18.102,18.101 C -8.104,18.101 0,9.997 0,0"
             style="fill:#2a2a2a;fill-opacity:1;fill-rule:nonzero;stroke:none"
             id="path60"
             inkscape:connector-curvature="0" /></g></g></g></g></svg>